<svg version="1.1" id="Layer_1" xmlns="http://www.w3.org/2000/svg" xmlns:xlink="http://www.w3.org/1999/xlink" x="0px" y="0px" width="100%" viewBox="0 0 512 512" enable-background="new 0 0 512 512" xml:space="preserve">
  <path fill="#E1E8ED" opacity="1.000000" stroke="none" d="
M370.000000,513.000000 
	C280.645782,513.000000 191.291550,513.000000 101.436752,512.532166 
	C100.927879,381.605377 100.943588,251.146393 100.813301,120.687569 
	C100.808655,116.030617 102.176941,114.834984 106.719208,114.850739 
	C147.205612,114.991188 187.692825,114.899704 228.274841,115.347992 
	C228.389191,203.816925 228.402222,291.814453 228.456268,379.811920 
	C228.458008,382.626740 228.569275,385.509033 229.164368,388.243469 
	C231.054138,396.926819 240.895493,401.766479 248.659286,397.510651 
	C251.718185,395.833893 254.487656,393.013489 256.472015,390.091248 
	C270.138611,369.965393 283.559143,349.672516 297.073151,329.442902 
	C297.848999,328.281525 298.750397,327.203949 299.828949,325.775330 
	C301.067627,327.542145 302.037903,328.869690 302.950287,330.235931 
	C316.553558,350.606140 330.127167,370.996124 343.757568,391.348145 
	C349.068054,399.277435 356.610382,401.285767 363.943726,396.924133 
	C369.725464,393.485291 370.809845,388.078156 370.805481,381.890198 
	C370.744629,295.392334 370.763092,208.894409 370.772797,122.396507 
	C370.773041,120.234184 370.893524,118.071884 371.379517,115.913116 
	C378.314270,118.233139 385.498962,119.482574 391.208649,123.075775 
	C405.578491,132.118988 412.951965,145.897217 412.980316,162.862885 
	C413.143707,260.619843 412.756714,358.378998 413.323944,456.132996 
	C413.462036,479.932831 395.199585,504.049927 374.148254,510.201477 
	C372.623138,510.647186 371.376251,512.044922 370.000000,513.000000 
z"></path>
  <path fill="#ABB8C2" opacity="1.000000" stroke="none" d="
M228.179779,114.876556 
	C187.692825,114.899704 147.205612,114.991188 106.719208,114.850739 
	C102.176941,114.834984 100.808655,116.030617 100.813301,120.687569 
	C100.943588,251.146393 100.927879,381.605377 100.968094,512.532166 
	C86.645775,513.000000 72.291542,513.000000 57.778526,512.677490 
	C52.796955,510.244110 47.709236,508.584290 43.201679,505.936737 
	C30.282986,498.348846 20.125637,488.061096 17.141481,472.891327 
	C15.421073,464.145721 15.638553,455.018860 14.990063,445.591064 
	C14.945869,421.112335 14.895392,397.106140 14.894966,372.627441 
	C14.964338,282.220276 14.987520,192.285645 14.968333,102.350998 
	C14.968028,100.918823 14.448019,99.486771 14.089176,97.602966 
	C14.338874,88.742210 14.526724,80.323883 15.069225,71.928474 
	C15.296412,68.412659 15.992353,64.864754 16.959181,61.469242 
	C23.208786,39.520546 38.691864,25.624666 57.862865,15.029833 
	C68.875443,8.943749 80.724319,5.273162 93.038734,2.930445 
	C93.787796,2.787943 94.350555,1.666140 95.000000,0.999999 
	C210.354233,1.000000 325.708466,1.000000 441.214874,1.318792 
	C442.180695,2.092432 442.943298,2.723602 443.815521,2.976026 
	C460.199463,7.717530 474.594788,15.934559 484.797943,29.684774 
	C495.448578,44.038010 499.916138,60.891167 499.942200,78.663918 
	C500.069122,165.255341 500.041260,251.847122 499.955017,338.438660 
	C499.941956,351.536530 499.876526,364.675659 498.870575,377.721344 
	C497.431671,396.382172 488.128876,410.507599 471.526276,419.960663 
	C470.774292,417.874969 470.120728,415.830994 470.119781,413.786713 
	C470.069977,305.304077 470.030518,196.821396 470.140503,88.338860 
	C470.152130,76.873085 468.034637,66.120476 461.867096,56.442188 
	C449.794739,37.497978 431.794861,29.179846 409.926178,29.207150 
	C313.296906,29.327795 216.667969,29.695656 120.038925,29.976471 
	C119.205925,29.978891 118.353058,29.905279 117.543129,30.052433 
	C108.579819,31.680986 99.308647,32.397594 90.742989,35.237602 
	C79.611488,38.928337 70.002052,45.301991 66.834839,58.376884 
	C63.184433,73.896851 70.743263,86.532585 88.902893,86.267181 
	C135.315811,85.588852 181.746689,86.140358 228.250977,86.650597 
	C228.280975,96.359688 228.230377,105.618126 228.179779,114.876556 
z"></path>
  <path fill="#ABB9C3" opacity="1.000000" stroke="none" d="
M370.468658,513.000000 
	C371.376251,512.044922 372.623138,510.647186 374.148254,510.201477 
	C395.199585,504.049927 413.462036,479.932831 413.323944,456.132996 
	C412.756714,358.378998 413.143707,260.619843 412.980316,162.862885 
	C412.951965,145.897217 405.578491,132.118988 391.208649,123.075775 
	C385.498962,119.482574 378.314270,118.233139 371.307007,115.458138 
	C370.864105,105.375671 370.915375,95.751740 371.436584,86.125336 
	C376.067566,86.121796 380.231110,86.027283 384.389252,86.136826 
	C397.906708,86.492943 410.073578,90.417801 420.803833,99.011047 
	C430.123169,106.474426 435.746429,116.190895 439.883514,127.472885 
	C440.584076,133.490372 441.860504,139.088699 441.867126,144.688522 
	C441.989349,248.182907 441.965210,351.677460 441.932892,455.171967 
	C441.932068,457.815094 441.660400,460.486755 441.219696,463.095245 
	C440.256744,468.794952 439.103424,474.462555 437.986725,480.493774 
	C436.106842,483.925262 434.640076,487.318573 432.362335,490.030823 
	C424.278717,499.656616 414.678375,507.259003 402.434845,511.062775 
	C401.815704,511.255127 401.471985,512.333923 401.000000,513.000000 
	C390.979095,513.000000 380.958221,513.000000 370.468658,513.000000 
z"></path>
  <path fill="#DD2F45" opacity="1.000000" stroke="none" d="
M370.966614,86.127808 
	C370.915375,95.751740 370.864105,105.375671 370.885376,115.454590 
	C370.893524,118.071884 370.773041,120.234184 370.772797,122.396507 
	C370.763092,208.894409 370.744629,295.392334 370.805481,381.890198 
	C370.809845,388.078156 369.725464,393.485291 363.943726,396.924133 
	C356.610382,401.285767 349.068054,399.277435 343.757568,391.348145 
	C330.127167,370.996124 316.553558,350.606140 302.950287,330.235931 
	C302.037903,328.869690 301.067627,327.542145 299.828949,325.775330 
	C298.750397,327.203949 297.848999,328.281525 297.073151,329.442902 
	C283.559143,349.672516 270.138611,369.965393 256.472015,390.091248 
	C254.487656,393.013489 251.718185,395.833893 248.659286,397.510651 
	C240.895493,401.766479 231.054138,396.926819 229.164368,388.243469 
	C228.569275,385.509033 228.458008,382.626740 228.456268,379.811920 
	C228.402222,291.814453 228.389191,203.816925 228.274826,115.347992 
	C228.230377,105.618126 228.280975,96.359688 228.362793,86.176376 
	C228.444382,76.213539 228.494736,67.175575 228.977417,58.088062 
	C264.187439,57.993084 298.965149,57.926220 333.742828,57.913738 
	C346.054016,57.909321 358.365265,58.037491 370.684631,58.566803 
	C370.784058,68.061584 370.875336,77.094696 370.966614,86.127808 
z"></path>
  <path fill="#F4F7F9" opacity="1.000000" stroke="none" d="
M370.676483,58.105133 
	C358.365265,58.037491 346.054016,57.909321 333.742828,57.913738 
	C298.965149,57.926220 264.187439,57.993084 228.469070,58.053288 
	C174.023239,58.046131 120.518105,58.024204 67.012962,58.002274 
	C70.002052,45.301991 79.611488,38.928337 90.742989,35.237602 
	C99.308647,32.397594 108.579819,31.680986 117.543129,30.052433 
	C118.353058,29.905279 119.205925,29.978891 120.038925,29.976471 
	C216.667969,29.695656 313.296906,29.327795 409.926178,29.207150 
	C431.794861,29.179846 449.794739,37.497978 461.867096,56.442188 
	C468.034637,66.120476 470.152130,76.873085 470.140503,88.338860 
	C470.030518,196.821396 470.069977,305.304077 470.119781,413.786713 
	C470.120728,415.830994 470.774292,417.874969 471.526276,419.960663 
	C472.196930,438.712616 467.363342,455.380157 453.671265,469.048126 
	C449.163116,473.548309 444.702789,477.663605 438.397888,480.079956 
	C439.103424,474.462555 440.256744,468.794952 441.219696,463.095245 
	C441.660400,460.486755 441.932068,457.815094 441.932892,455.171967 
	C441.965210,351.677460 441.989349,248.182907 441.867126,144.688522 
	C441.860504,139.088699 440.584076,133.490372 440.283844,127.360336 
	C441.068298,126.340027 441.822662,125.845299 441.815247,125.362259 
	C441.610138,112.001694 443.851685,98.429359 438.957581,85.442352 
	C433.140503,70.006210 419.077484,59.063725 404.056641,58.141190 
	C392.970978,57.460335 381.806091,58.070297 370.676483,58.105133 
z"></path>
  <path fill="#FFFFFF" opacity="1.000000" stroke="none" d="
M66.834839,58.376884 
	C120.518105,58.024204 174.023239,58.046131 228.036743,58.102833 
	C228.494736,67.175575 228.444382,76.213539 228.282196,85.725723 
	C181.746689,86.140358 135.315811,85.588852 88.902893,86.267181 
	C70.743263,86.532585 63.184433,73.896851 66.834839,58.376884 
z"></path>
  <path fill="#DCDCE3" opacity="1.000000" stroke="none" d="
M14.180308,373.028870 
	C14.119834,372.368286 14.006355,371.707733 14.006392,371.047150 
	C14.011502,280.357056 14.024890,189.666962 14.104216,98.515762 
	C14.448019,99.486771 14.968028,100.918823 14.968333,102.350998 
	C14.987520,192.285645 14.964338,282.220276 14.729425,372.607849 
	C14.513834,373.060791 14.180308,373.028870 14.180308,373.028870 
z"></path>
  <path fill="#FFFFFF" opacity="1.000000" stroke="none" d="
M14.108215,373.490753 
	C14.180308,373.028870 14.513834,373.060791 14.679375,373.080383 
	C14.895392,397.106140 14.945869,421.112335 14.990065,445.591064 
	C14.655630,444.743530 14.044174,443.424042 14.041479,442.103302 
	C13.995118,419.386505 14.023855,396.669556 14.108215,373.490753 
z"></path>
  <path fill="#FEFFFF" opacity="1.000000" stroke="none" d="
M370.684631,58.566803 
	C381.806091,58.070297 392.970978,57.460335 404.056641,58.141190 
	C419.077484,59.063725 433.140503,70.006210 438.957581,85.442352 
	C443.851685,98.429359 441.610138,112.001694 441.815247,125.362259 
	C441.822662,125.845299 441.068298,126.340027 440.268616,126.941856 
	C435.746429,116.190895 430.123169,106.474426 420.803833,99.011047 
	C410.073578,90.417801 397.906708,86.492943 384.389252,86.136826 
	C380.231110,86.027283 376.067566,86.121796 371.436554,86.125336 
	C370.875336,77.094696 370.784058,68.061584 370.684631,58.566803 
z"></path>
</svg>